<svg id="a4235327-3f5c-4377-ae5c-cc564901db23" data-name="Layer 1" xmlns="http://www.w3.org/2000/svg" viewBox="0 0 492.69 168.24"><defs><style>.be8337f5-22d9-43c1-9519-f87424edc796{font-size:40px;}.be8337f5-22d9-43c1-9519-f87424edc796,.f9cc8a0e-2886-4790-82c0-5b7715d002a3{font-family:TimesNewRomanPS-BoldMT, Times New Roman;font-weight:700;}.f9cc8a0e-2886-4790-82c0-5b7715d002a3{font-size:22px;fill:#fff;}</style></defs><text class="be8337f5-22d9-43c1-9519-f87424edc796" transform="translate(11.17 29.31) rotate(38.03)">B</text><text class="be8337f5-22d9-43c1-9519-f87424edc796" transform="matrix(0.85, 0.53, -0.53, 0.85, 33.72, 46.78)">L</text><text class="be8337f5-22d9-43c1-9519-f87424edc796" transform="translate(57.87 61.68) rotate(26.04)">A</text><text class="be8337f5-22d9-43c1-9519-f87424edc796" transform="matrix(0.94, 0.35, -0.35, 0.94, 85.27, 74.96)">C</text><text class="be8337f5-22d9-43c1-9519-f87424edc796" transform="translate(113.66 85.68) rotate(15.8)">K</text><text class="be8337f5-22d9-43c1-9519-f87424edc796" transform="translate(144.73 94.22) rotate(11.93)">J</text><text class="be8337f5-22d9-43c1-9519-f87424edc796" transform="translate(165.29 98.66) rotate(8.44)">A</text><text class="be8337f5-22d9-43c1-9519-f87424edc796" transform="translate(195 103.02) rotate(4.5)">C</text><text class="be8337f5-22d9-43c1-9519-f87424edc796" transform="matrix(1, 0.01, -0.01, 1, 224.97, 105.38)">K</text><text class="be8337f5-22d9-43c1-9519-f87424edc796" transform="translate(256.86 105.4) rotate(-2.19)"> </text><text class="be8337f5-22d9-43c1-9519-f87424edc796" transform="translate(267.53 105.12) rotate(-4.48)">P</text><text class="be8337f5-22d9-43c1-9519-f87424edc796" transform="translate(289.87 103.49) rotate(-7.68)">A</text><text class="be8337f5-22d9-43c1-9519-f87424edc796" transform="translate(315.92 100.07) rotate(-11.21)">Y</text><text class="be8337f5-22d9-43c1-9519-f87424edc796" transform="matrix(0.97, -0.26, 0.26, 0.97, 345.31, 94.1)">S</text><text class="be8337f5-22d9-43c1-9519-f87424edc796" transform="translate(367.48 88.01) rotate(-17.53)"> </text><text class="be8337f5-22d9-43c1-9519-f87424edc796" transform="matrix(0.94, -0.34, 0.34, 0.94, 377.73, 84.87)">3</text><text class="be8337f5-22d9-43c1-9519-f87424edc796" transform="translate(397.19 77.65) rotate(-22.62)"> </text><text class="be8337f5-22d9-43c1-9519-f87424edc796" transform="matrix(0.9, -0.44, 0.44, 0.9, 406.72, 73.93)">T</text><text class="be8337f5-22d9-43c1-9519-f87424edc796" transform="translate(431.65 61.93) rotate(-31.69)">O</text><text class="be8337f5-22d9-43c1-9519-f87424edc796" transform="matrix(0.8, -0.59, 0.59, 0.8, 459.04, 44.46)"> </text><text class="be8337f5-22d9-43c1-9519-f87424edc796" transform="translate(468.07 37.96) rotate(-40.21)">2</text><text class="f9cc8a0e-2886-4790-82c0-5b7715d002a3" transform="translate(15.12 88.13) rotate(38.03)">D</text><text class="f9cc8a0e-2886-4790-82c0-5b7715d002a3" transform="matrix(0.82, 0.57, -0.57, 0.82, 28.11, 98.23)">E</text><text class="f9cc8a0e-2886-4790-82c0-5b7715d002a3" transform="translate(40.66 106.85) rotate(31.14)">A</text><text class="f9cc8a0e-2886-4790-82c0-5b7715d002a3" transform="translate(54.7 115.29) rotate(28.02)">L</text><text class="f9cc8a0e-2886-4790-82c0-5b7715d002a3" transform="matrix(0.9, 0.43, -0.43, 0.9, 68.06, 122.39)">E</text><text class="f9cc8a0e-2886-4790-82c0-5b7715d002a3" transform="translate(81.72 128.81) rotate(22.44)">R</text><text class="f9cc8a0e-2886-4790-82c0-5b7715d002a3" transform="matrix(0.94, 0.35, -0.35, 0.94, 96.73, 134.92)"> </text><text class="f9cc8a0e-2886-4790-82c0-5b7715d002a3" transform="matrix(0.95, 0.32, -0.32, 0.95, 102.09, 137.08)">M</text><text class="f9cc8a0e-2886-4790-82c0-5b7715d002a3" transform="translate(121.68 143.55) rotate(15.64)">U</text><text class="f9cc8a0e-2886-4790-82c0-5b7715d002a3" transform="matrix(0.97, 0.24, -0.24, 0.97, 136.84, 147.76)">S</text><text class="f9cc8a0e-2886-4790-82c0-5b7715d002a3" transform="translate(148.63 150.63) rotate(11.7)">T</text><text class="f9cc8a0e-2886-4790-82c0-5b7715d002a3" transform="matrix(0.98, 0.18, -0.18, 0.98, 162.54, 153.46)"> </text><text class="f9cc8a0e-2886-4790-82c0-5b7715d002a3" transform="matrix(0.99, 0.16, -0.16, 0.99, 167.85, 154.47)">S</text><text class="f9cc8a0e-2886-4790-82c0-5b7715d002a3" transform="translate(179.83 156.42) rotate(7.38)">T</text><text class="f9cc8a0e-2886-4790-82c0-5b7715d002a3" transform="translate(192.66 158.12) rotate(5.61)">A</text><text class="f9cc8a0e-2886-4790-82c0-5b7715d002a3" transform="translate(208.36 159.67) rotate(3.57)">N</text><text class="f9cc8a0e-2886-4790-82c0-5b7715d002a3" transform="translate(224.08 160.65) rotate(1.56)">D</text><text class="f9cc8a0e-2886-4790-82c0-5b7715d002a3" transform="matrix(1, 0, 0, 1, 239.91, 161.02)"> </text><text class="f9cc8a0e-2886-4790-82c0-5b7715d002a3" transform="translate(245.32 161.11) rotate(-1.21)">O</text><text class="f9cc8a0e-2886-4790-82c0-5b7715d002a3" transform="matrix(1, -0.06, 0.06, 1, 262.29, 160.74)">N</text><text class="f9cc8a0e-2886-4790-82c0-5b7715d002a3" transform="matrix(1, -0.08, 0.08, 1, 278.07, 159.77)"> </text><text class="f9cc8a0e-2886-4790-82c0-5b7715d002a3" transform="translate(283.48 159.36) rotate(-5.71)">1</text><text class="f9cc8a0e-2886-4790-82c0-5b7715d002a3" transform="translate(294.35 158.27) rotate(-7.14)">7</text><text class="f9cc8a0e-2886-4790-82c0-5b7715d002a3" transform="translate(305.2 156.89) rotate(-8.22)"> </text><text class="f9cc8a0e-2886-4790-82c0-5b7715d002a3" transform="translate(309.37 156.36) rotate(-9.47)">A</text><text class="f9cc8a0e-2886-4790-82c0-5b7715d002a3" transform="translate(324.9 153.77) rotate(-11.62)">N</text><text class="f9cc8a0e-2886-4790-82c0-5b7715d002a3" transform="matrix(0.97, -0.24, 0.24, 0.97, 340.36, 150.6)">D</text><text class="f9cc8a0e-2886-4790-82c0-5b7715d002a3" transform="matrix(0.96, -0.27, 0.27, 0.96, 355.67, 146.75)"> </text><text class="f9cc8a0e-2886-4790-82c0-5b7715d002a3" transform="translate(360.9 145.39) rotate(-16.98)">D</text><text class="f9cc8a0e-2886-4790-82c0-5b7715d002a3" transform="translate(375.97 140.79) rotate(-19.43)">R</text><text class="f9cc8a0e-2886-4790-82c0-5b7715d002a3" transform="translate(391.33 135.37) rotate(-22.11)">A</text><text class="f9cc8a0e-2886-4790-82c0-5b7715d002a3" transform="translate(404.27 130.25) rotate(-25.06)">W</text><text class="f9cc8a0e-2886-4790-82c0-5b7715d002a3" transform="translate(424.15 120.76) rotate(-27.59)"> </text><text class="f9cc8a0e-2886-4790-82c0-5b7715d002a3" transform="translate(428.96 118.34) rotate(-29.52)">T</text><text class="f9cc8a0e-2886-4790-82c0-5b7715d002a3" transform="translate(441.87 111.07) rotate(-32.79)">O</text><text class="f9cc8a0e-2886-4790-82c0-5b7715d002a3" transform="translate(456.51 101.47) rotate(-35.33)"> </text><text class="f9cc8a0e-2886-4790-82c0-5b7715d002a3" transform="matrix(0.8, -0.61, 0.61, 0.8, 461.29, 98.14)">1</text><text class="f9cc8a0e-2886-4790-82c0-5b7715d002a3" transform="matrix(0.77, -0.64, 0.64, 0.77, 470.39, 91.21)">6</text></svg>